<svg width="16" height="17" viewBox="0 0 16 17" fill="none" xmlns="http://www.w3.org/2000/svg">
<path d="M7.99999 6.49998V1.83331L6.66666 3.16665" stroke="#92929D" stroke-width="1.5" stroke-linecap="round" stroke-linejoin="round"/>
<path d="M8 1.83331L9.33333 3.16665" stroke="#92929D" stroke-width="1.5" stroke-linecap="round" stroke-linejoin="round"/>
<path d="M1.32001 9.16669H4.26001C4.51334 9.16669 4.74001 9.30669 4.85334 9.53335L5.63334 11.0934C5.86001 11.5467 6.32001 11.8334 6.82667 11.8334H9.18001C9.68667 11.8334 10.1467 11.5467 10.3733 11.0934L11.1533 9.53335C11.2667 9.30669 11.5 9.16669 11.7467 9.16669H14.6533" stroke="#92929D" stroke-width="1.5" stroke-linecap="round" stroke-linejoin="round"/>
<path d="M4.66668 3.91998C2.30668 4.26665 1.33334 5.65332 1.33334 8.49998V10.5C1.33334 13.8333 2.66668 15.1666 6.00001 15.1666H10C13.3333 15.1666 14.6667 13.8333 14.6667 10.5V8.49998C14.6667 5.65332 13.6933 4.26665 11.3333 3.91998" stroke="#92929D" stroke-width="1.5" stroke-linecap="round" stroke-linejoin="round"/>
</svg>
